<?xml version="1.0" encoding="utf-8"?>
<!-- Generator: Adobe Illustrator 21.0.0, SVG Export Plug-In . SVG Version: 6.00 Build 0)  -->
<svg version="1.1" id="Calque_1" xmlns="http://www.w3.org/2000/svg" xmlns:xlink="http://www.w3.org/1999/xlink" x="0px" y="0px"
	 viewBox="0 0 48.3 117.3" style="enable-background:new 0 0 48.3 117.3;" xml:space="preserve">
<style type="text/css">
	.st0{fill:#C9F2FF;}
	.st1{fill:#0C0C0C;}
	.st2{fill:#2D2D2D;}
	.st3{fill:#FFEA80;}
	.st4{fill:#B2490D;}
	.st5{fill:#C0BAB3;}
	.st6{fill:#52858B;}
	.st7{fill:#C95E15;}
	.st8{fill:#ECECEC;}
	.st9{fill:#F0D61D;}
	.st10{fill:#FFEB80;}
	.st11{fill:#71A3AC;}
	.st12{fill:#FFFFFF;}
	.st13{fill:#464B4C;}
	.st14{fill:#EABE96;}
	.st15{fill:#FFDCB8;}
	.st16{fill:#725C2B;}
	.st17{fill:#CB8F5E;}
	.st18{fill:#190F08;}
	.st19{fill:#753427;}
	.st20{fill:#DA9089;}
	.st21{fill:#75A4AC;}
	.st22{fill:#A0CCD0;}
	.st23{fill:#493918;}
	.st24{fill:#382B19;}
	.st25{fill:#232728;}
	.st26{fill:#676B6B;}
	.st27{fill:#E5E5E5;}
	.st28{fill:#141414;}
	.st29{fill:#A0A3A3;}
</style>
<g>
	<g>
		<path class="st0" d="M0.7,34.4c0,0-0.6,1.2-0.7,2.7c0,0,0.1,0.6,1.5,1c1.6,0.2,4.5,0,4.5,0v-0.7c0,0-2.7,0-3.3-0.5
			c-0.1-0.3,0-0.8,0.3-1.3L0.7,34.4z"/>
		<path class="st1" d="M1.7,33.9c0,0,1.3-3.9,1.4-4.3c0,0,1.3-0.2,2.2,0.7c0,0-1.9,3.7-2.3,4.3C3,34.6,2.4,34.1,1.7,33.9z"/>
		<path class="st2" d="M0.4,34.6c0,0,0.2-0.9,0.8-1.2c0.2-0.1,2.1,1,2.3,1.4c0,0-0.5,1.2-0.6,1.2C2.9,36.1,0.5,34.9,0.4,34.6z"/>
	</g>
	<g>
		<path class="st3" d="M14,39c0,0-1.4,2.7-1.5,2.9s1.7,0,1.7,0s-0.7,2.7-0.8,3.2c0,0,1.1-0.8,1.8-1c0,0,1.5,5.6,2.2,6.7
			c0,0,3.9-6.9,3.7-7.4c0,0,0.8,0.3,1.2,0.4c0.3,0.1-1.1-2.8-1.1-2.8s1.5,0.1,2,0l-1.4-2.5C21.7,38.5,15.4,38.8,14,39z"/>
		<path class="st4" d="M21,21.5c-0.8-1.4-2-1.8-3.7-1.6c-1.2,0.2-2,1.1-2.6,2.5C16.3,22.7,18.6,22.8,21,21.5z"/>
		<path class="st5" d="M21,21.5c-2.4,1.2-4.7,1.2-6.3,0.9c-2,4.7-0.5,14.6-0.5,14.6c6.3,0.9,9-0.9,9-0.9
			C22.7,28.3,22.3,23.7,21,21.5z"/>
		<path class="st6" d="M14.2,36.4l-0.3,0.5c0,0,0.1,2,0.2,2.2c0,0,6.7,1.4,9.8-0.9c0,0-0.1-2-0.4-2.2c-0.3-0.2-0.3-0.2-0.3-0.2
			S19.5,37.2,14.2,36.4z"/>
		<path class="st7" d="M13.8,34.4c0,0,3.9,0.8,9.4-0.7l0-1.6c0,0-3.2,1-9.4,0.6V34.4z"/>
	</g>
	<path class="st8" d="M25.7,69.2c-3-0.6-5-4.1-2.5-5.8c0,0-5-0.8-2.7-5.7c0,0-3.3-1.7-0.7-4.3c0,0-3.6-4.6,0.1-7.1
		c0,0,1.4-2.2,4.2,3.1c0,0,9.2-4.1,4.3,7c2.6-1.1,3,2.2,1.4,3.1c4.2,0.6,4.7,6,0.9,8c1.2,0.8,1.5,4.6-1.1,4.5c0,0,6,1.1,3.7,6
		c4.6-2.3,6.2,2,5.2,4.3c0,0,8.1,3.8-0.7,9.6c6.3,3.2,5.1,13.7-3.8,13.2c5.2,2.7,1.4,9-3.1,6c1.3,2.3-2,6.5-6,6.3
		c-4-0.2-5.5-4.7-5.8-6.5c-2.1,2.5-4.5-1.1-3.2-2.7c-3.4,1.3-5.7-4.7-2-6.7c-6,0.5-9.2-9.4,0.4-11.2c-3.3-3.1-1.3-9.4,5-8.1
		c-1.4-2,2.1-2.9,3.4-2.6c0,0-2.8-3.9,1.9-5.5C24.6,74.1,22.4,70,25.7,69.2z"/>
	<g>
		<path class="st9" d="M19.6,42.1c0,0-2,3.8-2.1,4.1s2.3,0,2.3,0s-0.9,3.8-1.1,4.6c0,0,1.6-1.1,2.5-1.4c0,0,3.6,8.2,4.6,9.7
			c0,0,4-10,3.8-10.8c0,0,1.2,0.4,1.6,0.5c0.5,0.1-1.6-4-1.6-4s2,0.1,2.8,0l-2-3.5C30.5,41.4,21.6,41.8,19.6,42.1z"/>
		<path class="st10" d="M21.4,42c0,0-1.3,2.6-1.4,2.7c-0.1,0.2,1.6,0,1.6,0s-0.6,2.6-0.7,3.1c0,0,1.1-0.7,1.7-1c0,0,2.4,5.5,3.1,6.5
			c0,0,2.7-6.7,2.5-7.2c0,0,0.8,0.3,1.1,0.4s-1-2.7-1-2.7s1.4,0.1,1.9,0l-1.3-2.3C28.7,41.5,22.8,41.8,21.4,42z"/>
		<path class="st0" d="M27.6,21.2c-2.8,1.5-5.6,1.4-7.5,1c-2.3,5.6-0.6,17.4-0.6,17.4c7.4,1.1,10.6-1.1,10.6-1.1
			C29.6,29.3,29.2,23.9,27.6,21.2z"/>
		<path class="st11" d="M19.5,38.9l-0.4,0.5c0,0,0.2,2.4,0.2,2.7c0,0,7.9,1.7,11.7-1.1c0,0-0.1-2.4-0.5-2.7
			c-0.3-0.3-0.3-0.3-0.3-0.3S25.8,39.9,19.5,38.9z"/>
		<path class="st7" d="M19,36.5c0,0,4.6,0.9,11.1-0.8l0-1.9c0,0-3.8,1.2-11.1,0.7V36.5z"/>
		<path class="st12" d="M24.6,20.3c0,0,2.4-0.1,3.3,3.2c1,3.3,1.4,11.4,1.6,14.2l-1,0.3C28.5,38,28.3,20.5,24.6,20.3z"/>
	</g>
	<path class="st7" d="M27.6,21.2c-1-1.6-3.3-2.2-4.4-1.9c-1.4,0.4-2.4,1.3-3.1,2.9C22,22.6,24.8,22.7,27.6,21.2z"/>
	<g>
		<path class="st13" d="M11.3,23.5c1-0.2,3.4,1.7,1.8,9C11.7,38.4,3,33.9,3,33.9s1.5-1.7,1-2.6c0,0,4.3,4.4,7.1,1.2
			c0.5-0.6,0.9-3.5,0.3-5.5C10.8,24.8,10.2,23.7,11.3,23.5z"/>
		<g>
			<path class="st14" d="M3,33.8C3,33.8,3,33.8,3,33.8c0.3,0.1,1.2,0.5,1.8-1.3C4.8,32.5,2.5,32.3,3,33.8z"/>
			<path class="st14" d="M5.4,31c-0.4-0.1-0.7-0.1-1.2,0.9c-0.5,1.1-0.1,1.1,0.4,0.8S5.9,31.2,5.4,31z"/>
			<path class="st15" d="M3.5,30.5c-1-0.3-2.3,0.2-0.3,1.2C5.1,32.7,5.9,31.2,3.5,30.5z"/>
			<path class="st15" d="M3,31.5c-0.6-0.2-1.2-0.3-1.4,0.2c-0.1,0.4,0.2,0.6,1.1,1.1c1,0.5,1.6,0.5,1.8,0.1
				C4.7,32.5,4.3,31.9,3,31.5z"/>
			<path class="st15" d="M2.6,32.6c-0.9-0.3-1.9,0.2-0.2,1c0.8,0.4,1.4,0.3,1.5,0C4.1,33.1,3.6,32.9,2.6,32.6z"/>
		</g>
	</g>
	<g>
		<path class="st16" d="M23.5,16.4c0,0,0.3,1.1,0,1.4c-0.3,0.3-1.3-0.5-1.4-0.8c0,0,0.2,0.9-0.2,0.8c-0.4,0-1.1-1.5-1.1-1.5
			S21.7,14.8,23.5,16.4z"/>
		<path class="st15" d="M12.3,4.8c0,0-2.3,6.2-3.1,8s-1.2,5.1,1.5,6s7.6,1.1,9.2-0.7c1.7-1.8,2-3.3,2-3.3s2.7-6.4,0.9-8.9
			S13.7,2,12.3,4.8z"/>
		<path class="st17" d="M13.1,8.1c0,0-0.4,0.8-0.7,0.8s-1.5,0.3-0.6,1c0.9,0.7,1.7,0.3,1.7,0.3S12,9.9,11.9,9.4c0-0.4,0.6,0,0.9-0.3
			C13.1,8.9,13.1,8.1,13.1,8.1z"/>
		<ellipse transform="matrix(0.2881 -0.9576 0.9576 0.2881 3.9765 21.5381)" class="st18" cx="16.5" cy="8.1" rx="0.7" ry="0.4"/>
		<ellipse transform="matrix(0.2881 -0.9576 0.9576 0.2881 1.2782 17.3072)" class="st18" cx="12.3" cy="7.8" rx="0.7" ry="0.4"/>
		<path class="st16" d="M13.5,4.6c0,0,1.2,1.6,1.7,1.5c0.5,0,0-0.9,0-0.9s1.4,1.2,2.4,1.4c1,0.2,0-1,0-1s0.9,0.3,1.2,0
			C19.2,5.3,15.5,3.6,13.5,4.6z"/>
		<g>
			<path class="st19" d="M10.3,12.1c0,0-0.3,4.6,2.2,5.3c0,0,0.1,0,0.1,0c0.7-3.1,4.3-3.7,5.8-3.8c0.3-0.4,0.4-0.7,0.4-0.7
				C15.3,10.5,10.3,12.1,10.3,12.1z"/>
			<path class="st20" d="M12.6,17.4c2.7,0.7,4.9-2.3,5.8-3.8C16.9,13.7,13.3,14.3,12.6,17.4z"/>
		</g>
		<g>
			<path class="st0" d="M10.4,9.7c0,0,0.6-1.6,1.1-2.7c-0.2-0.1-0.4-0.2-0.5-0.3C10.7,7.6,10.5,8.6,10.4,9.7z"/>
			<path class="st12" d="M27.9,5c-0.2-0.6-0.6-1.2-1-1.7c-3.8-4.7-13.5-5.1-16,3.3c0.2,0.1,0.4,0.2,0.5,0.3c0.2-0.4,0.3-0.8,0.3-1
				c0,0,3.7-2.4,9.2,0.6c0,0,0.6,0.7,0.7,2.2C23.8,8.3,25.9,7.1,27.9,5z"/>
			<path class="st0" d="M21.8,8.8c0.1,1.4-0.1,3.6-1.6,6.7c0,0,3.2,1.7,4.2,1.4c0.9-0.2,5.7-6.8,3.6-11.9
				C25.9,7.1,23.8,8.3,21.8,8.8z"/>
		</g>
		<path class="st21" d="M24.7,10.5c0,0-0.1,0-0.1,0c0.5,0.3,0.7,1.3,0.4,2.4c-0.3,1.1-1,1.9-1.6,1.8c0,0,0.1,0,0.1,0
			c0.8,0.2,1.6-0.6,1.9-1.7C25.8,11.8,25.4,10.7,24.7,10.5z"/>
		<path class="st22" d="M25,12.8c0.3-1.1,0.1-2.1-0.4-2.4c-0.7-0.1-1.5,0.7-1.8,1.8c-0.3,1.1,0,2.1,0.7,2.4
			C24,14.7,24.7,13.9,25,12.8z"/>
		<path class="st23" d="M15.8,6.3c0,0,1.5,0.2,2.3,1.4C18.1,7.7,17,5.4,15.8,6.3z"/>
		<path class="st23" d="M13.7,6.3c0,0-0.6-0.3-1.8,0.8C11.9,7.1,12.8,5.3,13.7,6.3z"/>
	</g>
	<g>
		<path class="st24" d="M13.8,69.2c0,0-0.9,2.7-1.6,3.9c-0.7,1.2-0.3,3.1,0.8,3.2c1.1,0.1,4.7-5.1,5.1-5.8c0.4-0.7-1.7-1.8-1.7-1.8
			S14.4,68.8,13.8,69.2z"/>
		<path class="st24" d="M17.4,68.6c0,0,0.3,2.1,0.4,3.8c0.1,1.7-0.2,4.2,1.1,4.7c1.3,0.5,1.8-0.3,1.8-0.3s1.6-6.1,1.5-6.9
			c-0.2-0.8-1.8-2-1.8-2L17.4,68.6z"/>
		<path class="st13" d="M5.6,41.6c0,0,1.4,18.1,7.5,28c0,0,2.6,1.5,4.3-1.4c0,0-2-4.2-3.9-11.1s-2.8-13.4-2.9-14.4L5.6,41.6z"/>
		<path class="st13" d="M6.3,42.5c0,0,1.8,3.3,2.9,5.1s5.5,19.6,7.6,22.1c0,0,2.4,0.8,5.3-1.3c0,0-5.3-11.5-6.4-24.6
			C15.8,43.8,9,41.2,6.3,42.5z"/>
		<path class="st25" d="M7.2,44c0,0,1.5,1.9,2.2,3.9c0.7,2,4.9,16.3,6.4,19.3c0,0-3.3-8.2-4.8-13S9.7,48.7,7.2,44z"/>
	</g>
	<path class="st8" d="M42.5,82.1c0,0-1.7-1.4,0-2.2c0,0-2.1-2.4,0-3.4c2.1-1,2.9,1.8,2.9,1.8s0.5-1.2,1.9-0.4c1.3,0.8,0.8,2.6,0,3.2
		c0,0,1.6,1,0.8,2.4c-0.8,1.4-2.4,0-2.4,0C45.1,85.1,41.5,84.3,42.5,82.1z"/>
	<g>
		<path class="st13" d="M19.1,22.6c0,0,1.8,0.4,2.6,0.9c0,0-4.3,12.4-4.6,20.6c0,0-4.1-0.9-7.6-1.4c0-0.2-0.1-0.3-0.3-0.3
			c-1.6-0.2-3.3-0.1-4.1,0.1c0,0,3.1-15,6.3-19c0,0,0.8-0.1,1.7-0.4C14.1,22.8,19.1,22.6,19.1,22.6z"/>
		<path class="st26" d="M13.7,22.9c0,0-1.9,1.7-3.4,1.6c0,0,0.6,1.6,1.7,2.6c0,0-2.5,1.1-2.8,1.4c0,0,0,5.9,0,10.1
			c0,0,1.5-4.9,1.6-6S13.4,24,13.7,22.9z"/>
		<path class="st15" d="M18.4,18.6c0,0-0.9,4.3-1,4.6c-2.7,2.7-3,1.3-2.9,0c-0.2-0.3,0.7-3.4,0.7-4.4C16.7,18.6,18.4,18.6,18.4,18.6
			z"/>
		<path class="st25" d="M9.2,38.9c0-0.1-0.4,2-0.4,2.8C8.8,41.7,8.9,39.5,9.2,38.9z"/>
		<ellipse transform="matrix(0.1589 -0.9873 0.9873 0.1589 -31.4265 41.3813)" class="st25" cx="8.6" cy="39.1" rx="0.2" ry="0.2"/>
		<ellipse transform="matrix(0.1589 -0.9873 0.9873 0.1589 -33.0653 42.4614)" class="st25" cx="8.4" cy="40.6" rx="0.2" ry="0.2"/>
		<path class="st26" d="M19.5,22.9c0,0-0.2,2.6,0.9,3.9c0,0-3.6,1.2-5.1,1.5c0,0,1.6,1.4,3.2,2.3c0,0-8.3,4.4-9.2,8
			c0,0,0.9-4.4,1.5-5.8C11.3,31.3,18.5,23.7,19.5,22.9z"/>
		<path class="st27" d="M16.2,23.3c-0.1,0.1-0.3,0.3-0.5,0.4l-0.1-0.4l-0.4,0.9c-0.1,0.1-0.1,0.3-0.2,0.3l-0.1-1.1l-0.2,0.2
			c0-0.1,0-0.2,0-0.2c-0.7,0.1-1,0.1-1,0.1c-0.8,1.9-2.8,9.3-2.8,9.3c1.4-2.7,8.4-9.5,8.4-9.5C17.9,23.2,17,23.3,16.2,23.3z"/>
		<path class="st12" d="M18.2,21.6c0,0-2.3,1.4-2.7,1.6c0,0,0.4,1.5,0.5,1.8c0,0,3.3-1.8,3.7-2.3L18.2,21.6z"/>
		<path class="st12" d="M14.7,22.1c0,0-0.1,0.7,0.1,1.3c0,0-0.6,1.3-0.9,1.5c0,0-0.4-1.3-0.5-1.8L14.7,22.1z"/>
		<path class="st28" d="M15.9,24.8c0,0-1.8-0.2-1.8-0.2c-0.1,0.1,0.2,1.7,0.2,1.7s0.6,0.4,0.7,0.2C15.1,26.5,15.9,24.8,15.9,24.8z"
			/>
		<path class="st28" d="M14.4,26.3c0,0-1.1,2.8-5.1,4.4c-2.3,1-6.2,5-5.4,8.6c0,0,1.8,2.2,2.4,2.2c0,0,1.6-1.7,2-2.2
			c0,0-1.6-4.8,2.2-7.2c4.5-2.8,4.6-5.6,4.6-5.6L14.4,26.3z"/>
		<path class="st29" d="M15.6,23.3c0,0-0.6,1.1-0.7,1.2c0,0-0.1-0.9-0.1-1.1c0,0,0,1.1,0.1,1.3C14.9,24.7,15.2,24.1,15.6,23.3z"/>
		<path class="st25" d="M6.8,42.2c-0.1,0,1.9-0.1,2.2,0l0.2,0.2c0,0,3.2,0.6,4.7,1c0,0-2.7-0.8-4.7-0.8l-0.2-0.3
			C8.9,42.3,7.3,42.1,6.8,42.2z"/>
	</g>
	<g>
		<path class="st13" d="M19.7,22.8c0,0,9.5,1.1,10,7.9c0.6,9.1-14.1,7.2-14.1,7.2s1.6-2.8,0.7-3.7c0,0,10.2,3,10.8-2.8
			c0.4-3.6-4.7-5.1-6-5.4C19.7,25.7,19.5,23.5,19.7,22.8z"/>
		<g>
			<path class="st0" d="M14.6,39.1c-0.3,1.3,0,1.7,0,1.7c0.4,0.3,6.1-0.9,9.7-2.2c0.6-0.2,1.3-1.1,1.7-1.3c0,0,0.8,0.1,1,0.8
				c0,0.2,0,0.5-0.5,1c0,0-9.1,2.8-13.1,3.1c-0.6,0.1-1.2-0.3-1.6-0.4c-0.2-0.4,0-3,0-3S13.8,38.8,14.6,39.1z"/>
			<path class="st1" d="M13.8,31.6c0,0-1.1,6-1.2,6.5c-0.2,0.5,1.3,0.8,1.8,0.6c0.5-0.2,2.1-5.9,2.2-6.4
				C16.5,32.4,15.2,31.5,13.8,31.6z"/>
			<path class="st2" d="M11.9,37.5c0,0,2.8,0.6,3.2,1c0,0-0.2,1.1-0.5,1.5c-0.4,0.3-2.8-0.7-3-0.9C11.3,38.9,11.5,38.2,11.9,37.5z"
				/>
		</g>
		<path class="st15" d="M17.1,34.5c0,0-0.3-0.7-0.7-1.6c-0.2,0.8-0.5,1.2-0.5,1.2s-2.5-1.3-2.8-0.9c-0.3,0.5-0.1,1.3-0.1,1.3
			s-0.7,0.1-0.7,0.7c0,0.6,0.1,0.9,0.1,0.9s-0.6,0.5,0,0.9c0.6,0.4,2.7,1.2,3.2,1C16.1,37.7,17.1,35.8,17.1,34.5z"/>
	</g>
</g>
</svg>
